<svg width="81" height="100" viewBox="0 0 81 100" fill="none" xmlns="http://www.w3.org/2000/svg">
<g clip-path="url(#clip0_21_1686)">
<path d="M16.4193 64.1745C17.1709 62.8331 17.9033 61.5965 18.5312 60.3027C18.5793 60.1181 18.5837 59.9248 18.5441 59.7382C18.5045 59.5516 18.4219 59.3768 18.3029 59.2277C15.8168 56.3095 13.9204 52.9367 12.7188 49.2962C11.4382 45.3671 11.01 41.2101 11.4628 37.1025C11.9156 32.9949 13.2389 29.031 15.3445 25.4751C17.4501 21.9192 20.2896 18.8531 23.6737 16.4813C27.0578 14.1094 30.9087 12.4863 34.9696 11.7201C38.7733 11.0087 42.6808 11.0638 46.4629 11.8823C50.2451 12.7007 53.8258 14.266 56.9951 16.4864C60.1644 18.7067 62.8585 21.5375 64.9195 24.8127C66.9805 28.0879 68.3669 31.7416 68.9973 35.5596C69.7264 39.7135 69.5206 43.9777 68.3951 48.0422C67.2695 52.1067 65.2525 55.8693 62.4905 59.0565C62.2419 59.2868 62.0944 59.606 62.0802 59.9446C62.0659 60.2831 62.1861 60.6136 62.4144 60.864C71.8607 76.1417 62.6522 96.5755 44.9581 99.6292C41.5899 100.246 38.1326 100.184 34.7883 99.4488C31.4441 98.7134 28.28 97.3187 25.481 95.3461C22.6821 93.3736 20.3045 90.8628 18.4872 87.9607C16.67 85.0585 15.4495 81.8232 14.8973 78.4439C14.322 75.128 14.4256 71.73 15.2017 68.4553C15.2714 68.2393 15.2722 68.007 15.2041 67.7906C15.1359 67.5741 15.0021 67.3842 14.8212 67.2471C8.72115 61.5215 4.76344 53.8814 3.6054 45.5957C3.55784 45.2628 3.07267 44.9108 2.71118 44.711C1.8164 44.2664 1.07896 43.5588 0.597771 42.6831C0.116577 41.8074 -0.0853553 40.8055 0.0190341 39.8118C0.107807 38.8876 0.460945 38.0085 1.03623 37.2797C1.61151 36.5509 2.38457 36.0032 3.26293 35.7022C4.35117 35.3214 5.53923 35.339 6.61573 35.7518C7.69223 36.1647 8.58739 36.946 9.14194 37.9568C9.7127 38.9602 9.89906 40.137 9.66627 41.2677C9.43348 42.3984 8.79744 43.4058 7.87672 44.1022C7.50537 44.294 7.21492 44.6124 7.05789 44.9997C6.90086 45.387 6.88761 45.8178 7.02054 46.214C8.19204 52.9047 11.3627 59.0835 16.1149 63.9366C16.2111 64.0225 16.3128 64.102 16.4193 64.1745V64.1745ZM40.3824 51.5984C34.3775 51.6135 28.6237 54.0095 24.3829 58.261C20.1422 62.5125 17.7606 68.2723 17.7607 74.2772C17.8104 80.237 20.2013 85.9383 24.4175 90.1509C28.6336 94.3635 34.337 96.7496 40.2968 96.7943C46.3093 96.7767 52.0693 94.3752 56.3137 90.1166C60.558 85.858 62.9401 80.0899 62.9376 74.0774C62.8778 68.121 60.4799 62.4265 56.2608 58.2216C52.0416 54.0166 46.339 51.638 40.3824 51.5984V51.5984ZM40.2683 42.9701C43.2934 42.523 46.1663 42.0854 49.0487 41.6764C49.8858 41.5622 50.1617 41.1056 50.0666 40.316C49.7431 37.6239 49.4102 34.9412 49.1153 32.2491C49.0297 31.4595 48.6777 31.3929 47.9737 31.4975C45.8694 31.8854 43.7388 32.1143 41.6001 32.1825C38.594 32.1349 35.5974 31.7068 32.6008 31.488C32.3155 31.488 31.7732 31.7544 31.7447 31.9446C31.3642 34.8651 31.0502 37.7856 30.7173 40.7156C30.6602 41.2293 30.879 41.4956 31.4307 41.5812C34.3607 42.0284 37.3288 42.5135 40.2302 42.9701H40.2683ZM14.8687 36.9104C14.3937 39.9454 14.5361 43.0451 15.2873 46.0238C15.399 46.5032 15.6626 46.9336 16.0388 47.2509C18.5978 49.0204 21.2138 50.7042 23.7919 52.464C24.2025 52.8268 24.7386 53.0148 25.2858 52.9881C25.8331 52.9615 26.3484 52.7222 26.7218 52.3213C27.1936 51.9312 27.7191 51.6108 28.282 51.3701C28.7957 51.1322 28.9098 50.8754 28.7671 50.2856C28.3367 48.5287 28.019 46.7462 27.8158 44.9488C27.7112 43.9975 27.2831 43.7312 26.5221 43.3792C23.887 42.152 21.2709 40.8678 18.712 39.4884C17.3721 38.7006 16.0764 37.84 14.8307 36.9104H14.8687ZM65.9056 36.9104C65.771 36.9602 65.6406 37.0207 65.5156 37.0911C61.9647 39.9254 57.9735 42.1588 53.7005 43.7026C53.5442 43.7894 53.4087 43.9093 53.3035 44.0539C53.1984 44.1985 53.1261 44.3643 53.0917 44.5398C52.7968 45.9857 52.6256 47.4507 52.3307 48.8967C51.8931 50.98 51.8645 50.9705 53.7386 52.1121C54.0844 52.3767 54.4538 52.6092 54.8421 52.8065C55.2026 52.9729 55.6103 53.0066 55.9932 52.9016C59.2083 51.4525 62.1874 49.5285 64.8307 47.1939C65.0877 46.9941 65.2797 46.7227 65.3824 46.4138C66.1994 43.3233 66.3646 40.0967 65.8676 36.9389L65.9056 36.9104ZM40.3824 15.3826C37.0094 19.084 34.4206 23.4299 32.7721 28.1585C37.7498 29.2667 42.9104 29.2667 47.8881 28.1585C46.267 23.4402 43.7146 19.0957 40.3824 15.3826ZM27.2546 40.278C27.6636 36.977 28.0727 33.7711 28.4627 30.6889L18.7785 26.2464C18.4456 26.8076 18.0365 27.4165 17.7131 28.0824C17.1613 29.2239 16.6286 30.375 16.1625 31.5546C15.5441 33.1528 15.5727 33.1813 16.8664 34.2563C19.9567 36.8264 23.455 38.8617 27.2165 40.278H27.2546ZM53.5198 40.278C57.664 38.7267 61.4882 36.4276 64.8021 33.4952C64.8886 33.3907 64.9498 33.2677 64.9812 33.1358C65.0125 33.0038 65.0131 32.8664 64.9829 32.7342C64.3158 30.4329 63.2987 28.2479 61.9673 26.2559L52.3021 30.6984C52.6541 33.7997 53.0632 36.977 53.4817 40.2685L53.5198 40.278ZM29.5567 27.5877C31.1282 22.9526 33.5048 18.631 36.5772 14.8213C30.438 15.7823 24.8389 18.8903 20.7763 23.5923L29.5567 27.5877ZM51.2177 27.5877L59.9886 23.5828C55.9219 18.8892 50.3236 15.7884 44.1876 14.8309C47.2519 18.6378 49.6191 22.9566 51.1796 27.5877H51.2177ZM31.9349 49.7909C37.4075 47.8976 43.3574 47.8976 48.8299 49.7909L49.7146 45.1676C46.4802 45.4435 43.4171 45.9096 40.3539 45.9096C37.2907 45.9096 34.2371 45.4435 31.0407 45.1676L31.9349 49.7909ZM4.83258 41.9332C5.25466 41.9169 5.65519 41.7426 5.95475 41.4448C6.25431 41.147 6.431 40.7475 6.44977 40.3255C6.42625 39.9199 6.25763 39.5362 5.97471 39.2446C5.69179 38.9529 5.31343 38.7727 4.90868 38.7369C4.48668 38.7427 4.08205 38.9059 3.7741 39.1945C3.46615 39.4831 3.27707 39.8763 3.24392 40.297C3.25734 40.7186 3.42764 41.12 3.72148 41.4227C4.01532 41.7253 4.41155 41.9074 4.83258 41.9332V41.9332ZM62.7759 53.2061L62.5761 53.0443L58.2858 55.5367L59.8935 57.2395L62.7759 53.2061ZM20.8524 57.3061L22.4601 55.5653L18.0841 53.0348L17.9224 53.2156L20.8524 57.3061Z" fill="white"/>
<path d="M80.6792 39.726C80.6792 42.656 79.062 44.6918 76.8741 45.1199C75.7635 45.3582 74.6047 45.204 73.5951 44.6836C72.5856 44.1632 71.7877 43.3088 71.3375 42.266C70.8841 41.2423 70.8062 40.0916 71.1177 39.0162C71.4292 37.9408 72.11 37.0098 73.0403 36.387C73.3438 36.2348 73.5799 35.9754 73.7029 35.659C73.826 35.3426 73.8271 34.9918 73.7062 34.6746C71.1695 21.7751 63.7621 13.0169 51.484 8.39991C49.5814 7.68644 47.5266 7.40105 45.5575 6.87784C44.844 6.68758 44.6062 7.15372 44.3303 7.60083C43.6873 8.53692 42.7341 9.21552 41.6391 9.51668C40.5441 9.81785 39.3779 9.72217 38.3467 9.24656C37.359 8.78472 36.5544 8.00542 36.0613 7.03298C35.5682 6.06054 35.4149 4.95097 35.626 3.88127C35.8472 2.74955 36.4651 1.73394 37.3685 1.0172C38.2718 0.300452 39.4013 -0.0703675 40.5537 -0.0285513C41.4562 0.00604282 42.3312 0.291384 43.0806 0.79547C43.83 1.29956 44.4242 2.00245 44.7964 2.82533C44.883 3.00437 45.004 3.16459 45.1525 3.29681C45.3011 3.42903 45.4742 3.53065 45.6621 3.59588C51.1245 4.34868 56.3465 6.32482 60.9387 9.37699C65.531 12.4291 69.375 16.4786 72.1842 21.2233C74.7686 25.4421 76.4468 30.1526 77.1119 35.0552C77.1119 35.3691 77.5685 35.7306 77.9015 35.9113C78.6563 36.2506 79.3096 36.7809 79.7968 37.4499C80.2839 38.1189 80.5881 38.9035 80.6792 39.726V39.726ZM41.9521 4.77549C41.917 4.3546 41.7276 3.96152 41.4203 3.67179C41.113 3.38206 40.7095 3.21611 40.2873 3.20584C39.8833 3.24358 39.506 3.42438 39.2234 3.71564C38.9409 4.00691 38.7716 4.38952 38.7462 4.79452C38.7625 5.21659 38.9368 5.61713 39.2346 5.91669C39.5324 6.21624 39.9319 6.39293 40.3539 6.41171C40.7774 6.39031 41.1772 6.20992 41.4734 5.9066C41.7697 5.60327 41.9406 5.19934 41.9521 4.77549V4.77549ZM77.4448 40.2587C77.4074 39.838 77.2157 39.4459 76.9066 39.1579C76.5975 38.8699 76.1929 38.7063 75.7706 38.6986C75.3674 38.7406 74.9922 38.9243 74.7118 39.2169C74.4314 39.5096 74.2638 39.8922 74.239 40.2968C74.2531 40.7246 74.4287 41.1313 74.7305 41.4348C75.0323 41.7384 75.4379 41.9164 75.8657 41.933C76.299 41.9159 76.7089 41.7322 77.0102 41.4203C77.3115 41.1085 77.4808 40.6924 77.4829 40.2587H77.4448Z" fill="white"/>
<path d="M41.9616 86.9865L47.6693 88.6893L46.1568 91.762C44.3829 90.8367 42.4117 90.3535 40.411 90.3535C38.4102 90.3535 36.4391 90.8367 34.6651 91.762L33.1145 88.7083L38.7747 86.9579C38.7747 85.5405 38.7747 83.9423 38.7747 82.3442C38.7747 82.1824 38.4608 81.9541 38.242 81.8685C36.8981 81.3994 35.7478 80.4977 34.9714 79.3047C34.195 78.1117 33.8364 76.6948 33.9517 75.2761C33.9517 73.2593 33.9517 71.2426 33.9517 69.2258C33.9617 67.5295 34.6446 65.9065 35.8503 64.7133C37.0561 63.52 38.6861 62.8541 40.3824 62.8617C41.2231 62.8529 42.0572 63.0103 42.8368 63.3247C43.6165 63.6392 44.3264 64.1046 44.9257 64.6942C45.525 65.2837 46.0019 65.9859 46.3291 66.7603C46.6562 67.5347 46.8272 68.3661 46.8322 69.2068C46.8322 71.3853 46.8322 73.5732 46.8322 75.7517C46.8488 77.0523 46.4653 78.3265 45.7336 79.4019C45.0019 80.4773 43.9575 81.3018 42.7416 81.7639C42.1804 81.9827 41.9616 82.2205 41.9806 82.8293C41.9901 84.2658 41.9616 85.6927 41.9616 86.9865ZM37.1195 72.5458C37.1195 73.6208 37.1195 74.6958 37.1195 75.7707C37.1266 76.6216 37.4639 77.4364 38.0602 78.0434C38.6565 78.6503 39.4652 79.002 40.3158 79.0242C41.1657 79.0145 41.9785 78.6745 42.5821 78.0761C43.1858 77.4778 43.533 76.6681 43.5502 75.8183C43.6073 73.6684 43.5502 71.5185 43.5502 69.378C43.5504 68.5266 43.2168 67.709 42.621 67.1008C42.0252 66.4925 41.2147 66.142 40.3634 66.1246C39.9333 66.1271 39.5079 66.2146 39.1117 66.3821C38.7155 66.5495 38.3564 66.7937 38.0549 67.1005C37.7534 67.4072 37.5156 67.7706 37.3551 68.1696C37.1945 68.5687 37.1145 68.9955 37.1195 69.4256C37.0909 70.472 37.1195 71.5089 37.1195 72.5458Z" fill="white"/>
<path d="M51.7979 62.7949L54.062 60.5879C61.5772 67.5133 61.739 80.6316 54.062 87.7854L51.7979 85.5784C53.2986 84.0819 54.4869 82.3021 55.2936 80.3424C56.1004 78.3826 56.5095 76.2821 56.4973 74.1629C56.508 72.0509 56.0979 69.958 55.2911 68.0062C54.4842 66.0544 53.2968 64.2828 51.7979 62.7949V62.7949Z" fill="white"/>
<path d="M28.9669 85.5784C28.7671 85.7972 28.6625 85.9304 28.5483 86.0445L26.817 87.8805C19.4825 81.2881 18.712 68.1697 26.6077 60.626L28.8242 62.9186C27.3493 64.4001 26.1823 66.159 25.3904 68.0938C24.5985 70.0285 24.1975 72.1009 24.2104 74.1914C24.2047 76.3106 24.6225 78.4096 25.4393 80.365C26.2562 82.3205 27.4555 84.093 28.9669 85.5784V85.5784Z" fill="white"/>
<path d="M29.8326 66.8286L32.4011 68.6266C31.2812 70.2628 30.682 72.1993 30.682 74.1821C30.682 76.1649 31.2812 78.1014 32.4011 79.7377L29.9182 81.5071C26.7789 77.9683 26.503 70.9858 29.8326 66.8286Z" fill="white"/>
<path d="M48.2877 68.6359L50.8181 66.876C53.8527 70.2721 54.2428 77.2546 50.8752 81.5354L48.2877 79.7375C49.4055 78.1022 50.0035 76.1675 50.0035 74.1867C50.0035 72.2058 49.4055 70.2712 48.2877 68.6359V68.6359Z" fill="white"/>
</g>
<defs>
<clipPath id="clip0_21_1686">
<rect width="80.6792" height="100" fill="white"/>
</clipPath>
</defs>
</svg>
