<svg width="94" height="100" viewBox="0 0 94 100" fill="none" xmlns="http://www.w3.org/2000/svg">
<g clip-path="url(#clip0_21_1667)">
<path d="M48.6688 99.9998C48.3255 99.7615 48.0567 99.4308 47.8936 99.046C47.7306 98.6612 47.6799 98.2381 47.7476 97.8257C47.8028 96.9597 47.7476 96.0937 47.7476 95.1264C44.7812 95.1264 41.9254 95.1909 39.0695 95.1264C37.9709 95.1248 36.8838 94.9024 35.8729 94.4724C34.6417 93.9243 33.6076 93.0128 32.9094 91.8601C32.2112 90.7074 31.8823 89.3688 31.9668 88.0238C31.9668 83.1136 31.9668 78.1942 31.9668 73.284V71.9943L28.4569 74.6842L24.9102 77.4479C24.6839 77.6854 24.3883 77.8454 24.0657 77.905C23.7431 77.9645 23.4099 77.9207 23.1138 77.7796C22.8161 77.6345 22.569 77.4031 22.4047 77.1155C22.2403 76.828 22.1664 76.4976 22.1925 76.1675V71.1007H21.0318C17.0889 71.1007 13.146 71.1007 9.21232 71.1007C7.09354 71.1538 5.02371 70.4591 3.36606 69.1383C1.70842 67.8176 0.568859 65.9553 0.147366 63.8782C0.0203588 63.2383 -0.0382893 62.5867 -0.0276423 61.9344C-0.0276423 57.1808 -0.0276423 52.4303 -0.0276423 47.6829C-0.0276423 46.8353 0.147382 46.1076 1.14232 45.9418C2.13725 45.776 2.98478 46.3839 2.98478 47.6368C2.98478 52.0956 2.98478 56.5544 2.98478 61.0132C2.95335 61.8557 3.01514 62.6991 3.16903 63.5281C3.44246 64.7956 4.13833 65.9325 5.14259 66.7527C6.14685 67.5728 7.39992 68.0275 8.69644 68.0422C13.45 68.0975 18.2036 68.0422 22.9571 68.0422C24.7996 68.0422 25.2234 68.512 25.2234 70.2808C25.2234 71.202 25.2234 72.2062 25.2234 73.3853L28.07 71.202C28.7886 70.6493 29.4979 70.0689 30.2349 69.5438C31.3249 68.8086 32.1765 67.7713 32.6854 66.559C33.8093 63.869 36.0939 62.6714 38.9682 62.5793C39.8894 62.5793 40.8107 62.5793 41.7872 62.5793C41.7872 62.1463 41.8424 61.7962 41.8424 61.4553C41.8424 52.9247 41.8424 44.3972 41.8424 35.8727C41.8424 31.8745 39.2998 29.3319 35.3201 29.3227H9.44263C5.49054 29.3227 2.99399 31.8561 2.99399 35.7713C2.99399 36.6926 2.99399 37.5309 2.99399 38.4061C3.0071 38.6023 2.97873 38.7991 2.91072 38.9836C2.84271 39.1681 2.73659 39.3363 2.59927 39.4771C2.46196 39.6179 2.29653 39.7282 2.11375 39.8008C1.93097 39.8734 1.73494 39.9067 1.53844 39.8985C1.34249 39.9255 1.14298 39.908 0.954698 39.8474C0.766418 39.7867 0.594217 39.6845 0.450855 39.5482C0.307494 39.412 0.196669 39.2452 0.12659 39.0602C0.0565118 38.8752 0.0289746 38.6768 0.0460441 38.4797C-0.0303811 36.7589 0.0559836 35.0347 0.303989 33.3301C0.716472 31.3359 1.81359 29.5488 3.40526 28.2785C4.99692 27.0082 6.98283 26.3347 9.01887 26.3747C18.004 26.3747 26.986 26.3747 35.965 26.3747C36.5822 26.3747 37.1902 26.4484 37.8904 26.4945V25.3245C37.8904 20.2117 37.8167 15.0988 38.0009 9.99519C38.1949 7.32392 39.3774 4.82081 41.3175 2.97438C43.2576 1.12795 45.8162 0.0706838 48.4938 0.00898816C55.3938 0.00898816 62.3123 0.00898816 69.1939 0.00898816C70.2902 0.00898816 70.8521 0.524904 70.8429 1.47378C70.8337 2.42265 70.2902 2.92935 69.1939 2.93856C62.515 2.93856 55.8452 2.93856 49.1663 2.93856C47.2275 2.88377 45.3339 3.52988 43.833 4.75837C42.3321 5.98686 41.3244 7.7153 40.9949 9.62668C40.9148 10.1075 40.8808 10.5949 40.8936 11.0822C40.8936 16.4162 40.8936 21.7594 40.8936 27.0933C40.8809 27.3472 40.9325 27.6002 41.0436 27.8289C41.1547 28.0575 41.3218 28.2545 41.5292 28.4014C42.5811 29.2294 43.4264 30.2902 43.9987 31.5003C44.571 32.7104 44.8546 34.0369 44.8273 35.3752C44.8273 40.5157 44.8273 45.6654 44.8273 50.8059C44.8273 51.5981 45.0576 52.0588 45.8038 52.2062C46.9851 52.5301 48.1941 52.7429 49.415 52.8418C54.8871 52.9063 60.3501 52.8418 65.8222 52.8418C67.9226 52.8418 68.2727 53.1919 68.2819 55.2554C68.2819 56.6834 68.2819 58.1112 68.2819 59.5484C68.3046 59.6471 68.3386 59.743 68.3832 59.834C69.3044 59.1615 70.152 58.5074 71.0179 57.8441C72.8604 56.4623 74.6568 55.0804 76.4256 53.6801C77.1258 53.0939 78.0188 52.7886 78.9314 52.8234C80.5901 52.8757 82.2504 52.8449 83.906 52.7313C85.8012 52.5372 87.5609 51.6596 88.8562 50.2626C90.1515 48.8656 90.8937 47.0447 90.9443 45.1403C90.9443 33.6494 90.9443 22.1616 90.9443 10.6769C90.8845 8.60353 90.0204 6.63478 88.5349 5.18711C87.0494 3.73944 85.059 2.92644 82.9848 2.92012C81.5845 2.92012 80.2211 2.92012 78.784 2.92012C77.7522 2.92012 77.2271 2.40421 77.2271 1.46455C77.2074 1.25958 77.2351 1.05281 77.308 0.860219C77.3808 0.667627 77.497 0.494349 77.6474 0.35372C77.7978 0.213092 77.9785 0.108901 78.1756 0.0491347C78.3726 -0.0106311 78.5808 -0.0243905 78.784 0.00898816C81.1506 -0.0437485 83.5174 0.104217 85.859 0.451219C88.0401 1.00959 89.9865 2.24826 91.4161 3.98755C92.8456 5.72684 93.6839 7.8763 93.8093 10.1242C93.8093 10.4835 93.8554 10.8427 93.8554 11.202C93.8554 22.3305 93.8554 33.459 93.8554 44.5968C93.8554 49.7649 90.7508 54.1315 85.9972 55.3199C83.8953 55.7075 81.759 55.8773 79.6223 55.8266C78.8855 55.823 78.1688 56.0663 77.5864 56.5175C74.4265 58.9772 71.239 61.3909 68.0608 63.8321C67.4804 64.2835 66.9 64.6796 66.117 64.3204C65.3339 63.9611 65.1958 63.2333 65.1958 62.4779C65.1958 60.6354 65.1958 58.793 65.1958 57.015V55.9832C58.3418 55.5134 51.5615 56.5175 44.8088 55.3199V62.5608H45.9051C49.7466 62.5608 53.5882 62.5608 57.4297 62.5608C60.9396 62.5608 63.6204 64.5046 64.4127 67.6644C64.6163 68.6801 64.7089 69.7149 64.6891 70.7506C64.6891 72.5931 64.6891 74.3342 64.6891 76.1214C64.6891 77.365 64.1732 77.9638 63.1875 77.9638C62.2017 77.9638 61.6674 77.365 61.6582 76.1214C61.6582 73.9473 61.6582 71.764 61.6582 69.5806C61.7105 69.0414 61.6432 68.4972 61.4612 67.9869C61.2792 67.4766 60.9869 67.0127 60.6051 66.6283C60.2233 66.2439 59.7614 65.9484 59.2524 65.7628C58.7434 65.5773 58.1997 65.5063 57.66 65.5548H39.005C38.4737 65.5094 37.9389 65.5798 37.4374 65.7612C36.9359 65.9427 36.4798 66.2307 36.1006 66.6056C35.7213 66.9805 35.4279 67.4333 35.2407 67.9326C35.0535 68.4319 34.9768 68.9659 35.0161 69.4977C35.0161 75.7192 35.0161 81.9344 35.0161 88.1435C34.9845 88.6828 35.0684 89.2226 35.2622 89.7268C35.456 90.231 35.7552 90.6881 36.1397 91.0674C36.5243 91.4468 36.9854 91.7396 37.4923 91.9265C37.9991 92.1133 38.54 92.1898 39.0787 92.1509H48.6688C50.3639 92.1509 50.7692 92.5747 50.7876 94.2974C50.7876 94.6106 50.7876 94.9238 50.8429 95.412C52.0313 94.4908 53.1092 93.7446 54.1133 92.8971C54.729 92.3625 55.5285 92.0883 56.3427 92.1324C57.216 92.1823 58.0921 92.1204 58.9498 91.9482C59.7145 91.7579 60.3952 91.3209 60.8865 90.7047C61.3778 90.0885 61.6522 89.3276 61.6674 88.5396C61.6674 87.6184 61.6674 86.7801 61.6674 85.9049C61.6674 84.8363 62.2662 84.2927 63.2243 84.3112C63.4299 84.3007 63.6353 84.3361 63.8256 84.4147C64.0159 84.4933 64.1864 84.6131 64.3248 84.7656C64.4632 84.9181 64.566 85.0994 64.6258 85.2964C64.6856 85.4934 64.7009 85.7013 64.6706 85.9049C64.7213 87.2995 64.6225 88.6954 64.3759 90.0689C64.0407 91.5071 63.222 92.7868 62.0566 93.6939C60.8912 94.6011 59.4498 95.0808 57.9733 95.0528C56.7128 95.0064 55.4837 95.4524 54.5463 96.2964C53.0447 97.5769 51.4509 98.7469 49.8848 99.9814L48.6688 99.9998Z" fill="white"/>
<path d="M59.8342 23.7585C61.2437 22.1187 62.819 20.396 64.2561 18.5535C65.2328 17.2379 65.7565 15.6411 65.7485 14.0026C65.7203 13.5619 65.7877 13.1203 65.9459 12.7079C66.1041 12.2956 66.3495 11.9223 66.6652 11.6136C66.981 11.3048 67.3597 11.0679 67.7754 10.9189C68.1912 10.77 68.6342 10.7126 69.0742 10.7507C69.5984 10.778 70.1051 10.9488 70.5389 11.2444C70.9726 11.5401 71.3168 11.9493 71.5339 12.4273C72.3223 13.8534 72.7931 15.4332 72.914 17.0582C73.0348 18.6833 72.8029 20.3153 72.234 21.8423C72.105 22.2016 71.9761 22.5609 71.7918 23.0583H78.7195C79.2503 23.0066 79.7861 23.0708 80.2897 23.2464C80.7934 23.4219 81.2529 23.7047 81.6366 24.0753C82.0202 24.4458 82.3189 24.8952 82.5119 25.3924C82.7049 25.8896 82.7877 26.4228 82.7545 26.9551C82.7913 31.5797 82.7913 36.1859 82.7545 40.7737C82.7695 41.2812 82.6815 41.7865 82.4959 42.259C82.3102 42.7316 82.0307 43.1617 81.6743 43.5232C81.3179 43.8848 80.8919 44.1705 80.4221 44.3629C79.9522 44.5553 79.4483 44.6505 78.9406 44.6429C74.187 44.6429 69.4334 44.7534 64.6891 44.5968C63.0045 44.3838 61.3446 44.0074 59.7328 43.4729C59.1399 43.7052 58.5214 43.866 57.8904 43.9519C55.5504 44.0164 53.2105 43.9519 50.8706 43.9519C49.5256 43.9519 49.0281 43.4729 49.0281 42.1095C49.0281 36.4531 49.0281 30.7936 49.0281 25.1311C49.0281 23.7585 49.5624 23.2426 50.9258 23.2334C53.275 23.2334 55.6149 23.2334 57.9549 23.2334C58.5967 23.3475 59.2261 23.5234 59.8342 23.7585V23.7585ZM68.8623 13.7907C68.7983 14.0363 68.7491 14.2855 68.7149 14.5369C68.4859 17.3798 67.2628 20.0511 65.2603 22.0818C63.5836 23.9243 61.9622 25.7668 60.3685 27.6092C60.067 27.9709 59.8894 28.4197 59.8618 28.8898C59.825 32.2062 59.825 35.5226 59.8618 38.8391C59.8967 39.2637 60.087 39.6606 60.3961 39.9538C61.7175 41.0845 63.4112 41.6851 65.1497 41.6396C69.6085 41.6396 74.0642 41.6396 78.5168 41.6396C79.4381 41.6396 79.7973 41.3264 79.7973 40.3775C79.7973 36.0201 79.7973 31.6627 79.7973 27.3052C79.7973 26.1352 79.6039 25.9418 78.4431 25.9418C75.5781 25.9418 72.7223 25.9418 69.8572 25.9418C68.3464 25.9418 67.72 25.0206 68.2727 23.6295C68.678 22.6069 69.1939 21.6028 69.5071 20.5618C69.8916 19.4529 70.0331 18.2744 69.9218 17.1061C69.8105 15.9378 69.4492 14.807 68.8623 13.7907V13.7907ZM56.831 40.9856V26.384H52.0866V40.9856H56.831Z" fill="white"/>
<path d="M23.3441 53.9289H19.871C19.5762 55.6332 19.2999 57.2915 19.0143 58.9497C18.83 59.9999 18.2036 60.4973 17.2916 60.3776C16.3796 60.2578 15.965 59.6314 16.094 58.5351C16.2874 56.9967 16.573 55.4674 16.831 53.8276H12.8881C12.4954 53.8774 12.0981 53.781 11.7719 53.5567C11.4457 53.3325 11.2134 52.9961 11.1193 52.6116C10.8798 51.6903 11.5983 50.8428 12.7499 50.7691C13.9014 50.6954 15.2925 50.7691 16.5638 50.7691C17.1534 50.7691 17.439 50.6309 17.485 49.9769C17.5495 49.1109 17.7522 48.2542 17.9088 47.2132H13.3026C11.7642 47.2132 11.0088 46.7065 11.0272 45.7023C11.0456 44.6982 11.7918 44.2375 13.3487 44.2375H18.3694C18.6458 42.5793 18.9314 40.9856 19.1801 39.3918C19.3644 38.2127 20 37.5494 20.8936 37.6691C21.7872 37.7889 22.3031 38.5904 22.1188 39.8064C21.8977 41.2435 21.6674 42.6807 21.4371 44.1823H24.8918C25.1405 42.6991 25.38 41.2343 25.6288 39.7696C25.6748 39.4748 25.7209 39.1892 25.7946 38.9036C25.8246 38.7112 25.8929 38.5268 25.9954 38.3612C26.098 38.1957 26.2327 38.0525 26.3916 37.9399C26.5505 37.8274 26.7304 37.7479 26.9206 37.7061C27.1108 37.6644 27.3074 37.6612 27.4989 37.6968C27.7009 37.735 27.8931 37.8136 28.0641 37.9278C28.2351 38.042 28.3813 38.1895 28.4939 38.3615C28.6066 38.5335 28.6834 38.7264 28.7198 38.9288C28.7562 39.1312 28.7514 39.3388 28.7057 39.5393C28.4569 41.0685 28.1898 42.5978 27.9042 44.2468H31.6905C32.9986 44.2468 33.6527 44.7534 33.6527 45.7484C33.6527 46.7433 33.0355 47.2131 31.6721 47.2223H27.4804L26.9093 50.7322C28.632 50.7322 30.2534 50.7322 31.8747 50.7322C33.0078 50.7322 33.6251 51.2205 33.7172 52.0865C33.8093 52.9524 33.1737 53.7355 32.0221 53.7539C30.4284 53.7539 28.8347 53.7539 27.2409 53.7539C26.5776 53.7539 26.3197 53.9474 26.2552 54.6106C26.0802 56.0293 25.8222 57.4389 25.5551 58.8391C25.334 59.963 24.6338 60.4421 23.7126 60.2578C22.7914 60.0736 22.4229 59.3366 22.6163 58.2035C22.8743 56.8677 23.0954 55.4398 23.3441 53.9289ZM20.9581 47.379L20.3777 50.7875H23.8692L24.3943 47.379H20.9581Z" fill="white"/>
<path d="M48.2727 73.0261C48.9973 72.5022 49.8422 72.1692 50.7294 72.0579C51.6166 71.9466 52.5176 72.0605 53.3492 72.3891C54.1808 72.7177 54.9162 73.2504 55.4877 73.9381C56.0592 74.6259 56.4483 75.4464 56.6191 76.3241C56.8402 77.3794 56.8086 78.472 56.5268 79.5127C56.245 80.5534 55.721 81.5126 54.9977 82.3121C53.2987 84.1111 51.2687 85.5656 49.0189 86.5959C48.8128 86.6867 48.59 86.7336 48.3648 86.7336C48.1396 86.7336 47.9168 86.6867 47.7107 86.5959C45.3708 85.3891 43.1046 84.1086 41.3911 81.9897C40.7532 81.2025 40.2983 80.2832 40.0593 79.2986C39.8203 78.314 39.8032 77.2885 40.0092 76.2964C40.161 75.4171 40.5362 74.5915 41.099 73.8989C41.6618 73.2064 42.3932 72.6702 43.223 72.3418C44.0528 72.0134 44.953 71.9039 45.8373 72.0237C46.7216 72.1435 47.5602 72.4887 48.2727 73.0261V73.0261ZM53.8001 77.927C53.8001 76.3886 53.1552 75.4489 52.0774 75.0988C50.9995 74.7488 50.4929 75.0159 49.5808 76.2043C48.7978 77.2177 47.7384 77.1256 46.9553 75.9925C46.74 75.6049 46.4036 75.2987 45.9976 75.1207C45.5916 74.9426 45.1384 74.9026 44.7075 75.0067C44.2906 75.0903 43.9076 75.2947 43.6062 75.5945C43.3047 75.8943 43.0982 76.2762 43.0124 76.6926C42.7875 77.3986 42.7805 78.1559 42.9925 78.8658C43.2045 79.5758 43.6256 80.2053 44.2008 80.6723C45.3972 81.6804 46.6623 82.6038 47.9871 83.436C48.1084 83.4921 48.2404 83.5212 48.374 83.5212C48.5076 83.5212 48.6397 83.4921 48.7609 83.436C49.8694 82.7605 50.9425 82.0288 51.976 81.2435C52.5058 80.8602 52.9436 80.3636 53.2575 79.7899C53.5714 79.2163 53.7536 78.5799 53.7909 77.927H53.8001Z" fill="white"/>
</g>
<defs>
<clipPath id="clip0_21_1667">
<rect width="93.9014" height="100" fill="white"/>
</clipPath>
</defs>
</svg>
