<svg width="92" height="94" viewBox="0 0 92 94" fill="none" xmlns="http://www.w3.org/2000/svg">
<g clip-path="url(#clip0_21_1677)">
<path d="M46.053 92.3254C34.7642 92.3132 23.9389 87.858 15.9411 79.9329C7.94331 72.0078 3.42284 61.2566 3.36687 50.0271C3.39902 38.8761 7.82384 28.1818 15.6919 20.2389C23.56 12.2961 34.2444 7.7376 45.4526 7.54153C51.0829 7.48748 56.6685 8.53987 61.8889 10.6383C67.1093 12.7368 71.8618 15.84 75.8737 19.7699C79.8856 23.6998 83.0779 28.3791 85.2675 33.5393C87.4571 38.6994 88.6009 44.2389 88.6331 49.8398C88.6394 61.0873 84.1594 71.8778 76.1765 79.843C68.1935 87.8083 57.3597 92.2975 46.053 92.3254ZM25.5928 70.3097C24.8394 67.628 24.1095 64.8878 23.309 62.1124C23.2413 61.9556 23.1429 61.8138 23.0196 61.6952C22.8964 61.5766 22.7507 61.4836 22.5909 61.4215C21.4194 61.0216 20.4103 60.2536 19.7159 59.2334C19.0215 58.2131 18.6795 56.9958 18.7414 55.7653C18.7414 51.7954 18.7414 47.8256 18.7414 43.8557C18.6942 42.6028 19.0694 41.3701 19.8075 40.3537C20.5455 39.3373 21.604 38.5956 22.8146 38.2464C23.156 38.1176 23.6269 37.8483 23.721 37.5555C24.5686 34.8035 25.3456 32.0516 26.1344 29.3582L15.9867 24.9082C15.61 25.3766 15.198 25.845 14.8095 26.3368C11.6363 30.4487 9.33366 35.1577 8.04075 40.1795C6.74784 45.2012 6.49145 50.4315 7.28702 55.5545C8.23197 62.2537 10.95 68.5826 15.1626 73.8931C15.5393 74.3849 15.8101 74.7246 16.5635 74.3732C19.5184 72.9914 22.5085 71.6798 25.5811 70.3097H25.5928ZM66.3012 29.323C67.0899 31.9345 67.914 34.4756 68.6557 37.0636C68.8558 37.8014 69.1148 38.0473 69.8329 38.1059C71.2116 38.2219 72.4979 38.8433 73.442 39.8495C74.3861 40.8558 74.9207 42.175 74.942 43.5513C74.942 47.767 74.942 51.9828 74.942 56.1986C75.0286 57.3159 74.7244 58.4287 74.0808 59.3485C73.4372 60.2683 72.4938 60.9385 71.4104 61.2458C69.2678 61.7727 68.8205 63.0023 68.432 64.7589C68.0435 66.5155 67.4549 67.991 66.9605 69.5953C66.8545 69.9349 66.7839 70.2863 66.7132 70.5205C69.515 71.8672 72.2226 73.1085 74.8596 74.4786C75.719 74.9236 76.1192 74.8182 76.6725 74.0805C85.2898 62.6628 87.3735 50.1911 82.7588 36.6655C81.2499 32.3404 78.9244 28.3419 75.9074 24.8847L66.3012 29.323ZM46.8888 41.5019H25.0748C22.9558 41.5019 22.2142 42.2163 22.2142 44.3007C22.2142 48.0247 22.2142 51.7486 22.2142 55.4725C22.2142 57.5336 23.0029 58.365 25.0513 58.365H68.6792C70.6687 58.365 71.481 57.5219 71.4928 55.5662V44.5466C71.4928 42.2046 70.81 41.5254 68.4673 41.5136L46.8888 41.5019ZM47.807 70.4268V88.6951C48.0072 88.6951 48.1249 88.7537 48.2426 88.7537C49.4461 88.9179 50.6715 88.7228 51.7635 88.1932C52.8554 87.6637 53.7647 86.8235 54.376 85.7792C57.2697 81.6518 59.8134 77.2922 61.9808 72.7455C57.4117 71.2233 52.6256 70.4443 47.807 70.4385V70.4268ZM30.5372 72.5113C30.5175 72.6629 30.5175 72.8164 30.5372 72.968C33.0035 78.3405 36.1314 83.3874 39.849 87.9925C40.017 88.2233 40.2571 88.3921 40.5318 88.4726C41.709 88.6249 42.8862 88.7069 44.1223 88.824V70.3214C39.5192 70.4872 34.9552 71.2268 30.5372 72.523V72.5113ZM61.6159 27.3908C59.1534 21.921 56.1191 16.7241 52.563 11.8861C52.4275 11.684 52.2223 11.5383 51.9862 11.4762C50.6206 11.2772 49.2315 11.1249 47.8424 10.9493V29.5572L61.6159 27.3908ZM44.2047 10.9961C43.4266 11.1305 42.6397 11.2088 41.8503 11.2303C41.3371 11.1939 40.8247 11.3117 40.3797 11.5686C39.9346 11.8254 39.5775 12.2094 39.3546 12.6707C38.3657 14.2868 37.1767 15.7974 36.2232 17.4369C34.3867 20.587 32.6915 23.7957 30.7962 27.1332C35.1617 28.3954 39.6719 29.096 44.2165 29.2176L44.2047 10.9961ZM63.0403 30.658L47.8541 33.1055V37.9888H65.3594L63.0403 30.658ZM47.7364 66.6092L63.4994 69.2323L65.6537 61.9835H47.7364V66.6092ZM44.2047 33.0587L29.4541 30.7166L27.0997 38.059H44.1694L44.2047 33.0587ZM28.9008 69.1269L44.2047 66.6677V61.9835H26.8054L28.9008 69.1269ZM34.9635 12.577C28.7222 14.4197 23.0387 17.7758 18.4235 22.3436L27.3704 26.1495L34.9635 12.577ZM34.5515 87.1845L26.7347 73.6355L18.1646 77.336C22.7347 81.9003 28.3618 85.2782 34.5515 87.1728V87.1845ZM73.5058 22.2733C69.062 17.8971 63.6284 14.6445 57.6604 12.7878L65.0887 26.0909L73.5058 22.2733ZM73.5765 77.5585L65.6184 73.858C63.0168 78.3548 60.5211 82.6877 58.0136 87.0088C63.8769 85.1101 69.2084 81.8646 73.5765 77.535V77.5585Z" fill="white"/>
<path d="M86.8438 93.9882C85.4783 93.9789 84.1723 93.4311 83.2123 92.4652C82.2522 91.4992 81.7166 90.1939 81.7228 88.8356C81.7628 87.4781 82.3364 86.1904 83.3202 85.2489C84.3041 84.3074 85.6199 83.7872 86.985 83.8C88.3289 83.8306 89.6074 84.3833 90.5468 85.3397C91.4863 86.2961 92.0121 87.5803 92.0118 88.9175C92.015 89.5902 91.8831 90.2568 91.6236 90.8781C91.3642 91.4994 90.9825 92.0628 90.501 92.5352C90.0195 93.0076 89.4479 93.3795 88.8198 93.629C88.1918 93.8786 87.5199 94.0007 86.8438 93.9882V93.9882ZM86.8438 90.475C87.0599 90.4801 87.2749 90.4408 87.4752 90.3597C87.6755 90.2787 87.8569 90.1575 88.0081 90.0038C88.1594 89.85 88.2773 89.667 88.3544 89.466C88.4315 89.265 88.4663 89.0505 88.4566 88.8356C88.4582 88.6194 88.4162 88.405 88.3331 88.2053C88.2499 88.0055 88.1273 87.8244 87.9726 87.6726C87.8178 87.5208 87.634 87.4015 87.432 87.3216C87.23 87.2418 87.014 87.2031 86.7967 87.2078C86.3608 87.2334 85.95 87.4187 85.6435 87.728C85.3369 88.0372 85.1564 88.4485 85.1368 88.8824C85.1379 89.1074 85.1853 89.3298 85.276 89.5359C85.3666 89.7421 85.4987 89.9276 85.6641 90.0812C85.8295 90.2347 86.0246 90.353 86.2376 90.4287C86.4506 90.5045 86.6769 90.5362 86.9026 90.5218L86.8438 90.475Z" fill="white"/>
<path d="M13.6558 6.69828C11.5015 8.44314 10.7834 8.63051 9.93577 7.69367C9.08817 6.75684 9.44134 6.00737 11.113 4.18053C10.336 3.10317 8.46423 2.07265 10.1477 0.526868C11.6074 -0.808127 12.561 0.796209 13.6793 1.69792C14.7977 0.866472 15.8454 -0.936939 17.3876 0.74937C18.7649 2.24831 17.058 3.09147 16.2104 4.26251C16.9638 5.37501 18.8238 6.25328 17.1992 7.93958C16.3163 8.71248 15.6217 8.41972 13.6558 6.69828Z" fill="white"/>
<path d="M1.67165 17.7296C1.89894 17.7182 2.12614 17.7537 2.33894 17.8339C2.55174 17.9142 2.74553 18.0374 2.9081 18.1958C3.07067 18.3542 3.19849 18.5445 3.28352 18.7544C3.36856 18.9644 3.40896 19.1897 3.40217 19.4159C3.40376 19.6434 3.35969 19.8689 3.27255 20.0793C3.18541 20.2896 3.05694 20.4805 2.89468 20.6408C2.73242 20.8012 2.53962 20.9276 2.32759 21.0129C2.11556 21.0982 1.88854 21.1405 1.65987 21.1373C1.44043 21.1374 1.2232 21.0939 1.0209 21.0093C0.818609 20.9247 0.635329 20.8008 0.481817 20.6448C0.328305 20.4888 0.207657 20.3039 0.12694 20.101C0.0462224 19.898 0.00705895 19.681 0.0117612 19.4628C-0.00660034 19.2375 0.0230866 19.0109 0.0988817 18.7979C0.174677 18.5848 0.294873 18.3901 0.451585 18.2265C0.608298 18.0628 0.797985 17.934 1.00824 17.8484C1.2185 17.7628 1.44458 17.7223 1.67165 17.7296V17.7296Z" fill="white"/>
<path d="M28.9479 49.8517C28.9479 48.2825 28.9479 46.7132 28.9479 45.1675C28.9479 43.6217 29.6072 43.1533 31.0316 43.1299C32.2088 43.1299 33.386 43.1299 34.6457 43.1299C35.2509 43.1121 35.8534 43.2174 36.4163 43.4393C36.9792 43.6612 37.4906 43.9951 37.9193 44.4204C38.348 44.8457 38.6849 45.3536 38.9094 45.913C39.134 46.4723 39.2414 47.0714 39.2251 47.6735C39.2251 49.1958 39.2251 50.7299 39.2251 52.264C39.2437 52.865 39.137 53.4634 38.9117 54.0213C38.6865 54.5793 38.3476 55.0848 37.9163 55.5062C37.4851 55.9275 36.9708 56.2554 36.4059 56.4693C35.841 56.6832 35.2376 56.7785 34.6339 56.7491H31.0198C29.5483 56.7491 28.9832 56.187 28.9479 54.7232C28.9126 53.2594 28.9479 51.4677 28.9479 49.8517ZM32.4796 46.6196V53.2711C33.1506 53.2711 33.7157 53.2711 34.2925 53.2711C35.3873 53.3414 35.7876 52.8261 35.7405 51.7839C35.7405 50.9993 35.7405 50.2147 35.7405 49.4418C35.764 46.3736 35.7169 46.3268 32.5149 46.6196H32.4796Z" fill="white"/>
<path d="M44.346 46.5375V48.2238C45.3584 48.2238 46.3355 48.2238 47.3126 48.2238C48.6429 48.2238 49.4669 48.9265 49.4434 49.957C49.4198 50.9875 48.6075 51.6433 47.2655 51.6784C46.3237 51.6784 45.382 51.6784 44.3695 51.6784V53.271C45.4055 53.271 46.3826 53.271 47.3715 53.271C48.6429 53.271 49.5022 54.0557 49.4434 55.0862C49.3845 56.1167 48.584 56.7022 47.3479 56.7139H42.8509C41.556 56.7139 40.8614 56.1284 40.8496 54.8637C40.7908 51.5613 40.7908 48.2473 40.8496 44.9449C40.8313 44.6932 40.8684 44.4405 40.9585 44.2046C41.0485 43.9686 41.1892 43.7551 41.3709 43.5788C41.5525 43.4026 41.7706 43.268 42.01 43.1844C42.2494 43.1007 42.5042 43.0701 42.7567 43.0946C44.3342 43.0946 45.9235 43.0946 47.4656 43.0946C47.715 43.0786 47.965 43.1137 48.2001 43.1977C48.4353 43.2817 48.6506 43.4129 48.8327 43.5831C49.0148 43.7532 49.1598 43.9588 49.2588 44.187C49.3578 44.4152 49.4086 44.6612 49.4081 44.9098C49.386 45.1455 49.3172 45.3745 49.2056 45.5836C49.094 45.7927 48.9418 45.9778 48.7579 46.128C48.574 46.2783 48.362 46.3908 48.1341 46.4591C47.9063 46.5274 47.6671 46.5501 47.4303 46.5258C46.4768 46.5493 45.4761 46.5375 44.346 46.5375Z" fill="white"/>
<path d="M54.5643 46.5375V48.2238C55.6003 48.2238 56.6244 48.2238 57.6368 48.2238C58.8141 48.2238 59.6735 48.9499 59.6735 49.9335C59.6604 50.1826 59.5966 50.4264 59.4858 50.6502C59.3751 50.8739 59.2197 51.0729 59.0292 51.235C58.8387 51.3972 58.617 51.519 58.3776 51.5932C58.1383 51.6674 57.8862 51.6924 57.6368 51.6667C56.648 51.6667 55.6591 51.6667 54.5054 51.6667C54.5054 52.8377 54.5054 53.8214 54.5054 54.8402C54.537 55.067 54.5201 55.2979 54.4558 55.5177C54.3915 55.7376 54.2814 55.9415 54.1325 56.1161C53.9836 56.2908 53.7994 56.4322 53.5918 56.5311C53.3843 56.6301 53.158 56.6844 52.928 56.6905C52.6875 56.7159 52.4443 56.6895 52.215 56.613C51.9857 56.5366 51.7756 56.4119 51.5991 56.2474C51.4226 56.083 51.2838 55.8826 51.1922 55.66C51.1005 55.4374 51.0581 55.1977 51.0679 54.9573C51.0209 51.6081 51.0209 48.2629 51.0679 44.9215C51.053 44.669 51.0933 44.4163 51.1862 44.1809C51.2791 43.9456 51.4224 43.7331 51.606 43.5582C51.7896 43.3833 52.0093 43.2502 52.2497 43.1681C52.4902 43.0861 52.7457 43.057 52.9986 43.0829C54.5643 43.0829 56.1535 43.0829 57.7075 43.0829C57.9574 43.0669 58.2079 43.102 58.4437 43.1859C58.6795 43.2698 58.8955 43.4007 59.0786 43.5707C59.2616 43.7407 59.4077 43.9462 59.508 44.1744C59.6083 44.4027 59.6606 44.6489 59.6617 44.898C59.6381 45.1342 59.5679 45.3635 59.4551 45.5727C59.3423 45.7819 59.1891 45.9668 59.0042 46.117C58.8194 46.2671 58.6066 46.3795 58.378 46.4476C58.1494 46.5158 57.9095 46.5383 57.6722 46.5141C56.648 46.5492 55.7062 46.5375 54.5643 46.5375Z" fill="white"/>
<path d="M64.7355 49.9805C64.7355 51.5848 64.7355 53.2009 64.7355 54.8052C64.7355 55.9762 64.1116 56.6906 63.0756 56.714C62.8353 56.721 62.596 56.678 62.3733 56.5879C62.1505 56.4978 61.9491 56.3625 61.7818 56.1906C61.6146 56.0187 61.4852 55.814 61.4019 55.5896C61.3186 55.3652 61.2832 55.1259 61.298 54.8872C61.298 51.5848 61.298 48.2786 61.298 44.9684C61.2853 44.7294 61.3214 44.4903 61.4043 44.2657C61.4872 44.041 61.615 43.8354 61.7801 43.6613C61.9452 43.4872 62.1441 43.3483 62.3648 43.2529C62.5854 43.1575 62.8233 43.1077 63.0638 43.1064C63.3012 43.1181 63.5337 43.1774 63.7475 43.2806C63.9612 43.3838 64.1519 43.5288 64.308 43.7071C64.464 43.8853 64.5824 44.093 64.6558 44.3178C64.7293 44.5426 64.7564 44.7798 64.7355 45.0153C64.7473 46.6664 64.7355 48.3293 64.7355 49.9805Z" fill="white"/>
</g>
<defs>
<clipPath id="clip0_21_1677">
<rect width="92" height="94" fill="white"/>
</clipPath>
</defs>
</svg>
