<svg width="100" height="101" viewBox="0 0 100 101" fill="none" xmlns="http://www.w3.org/2000/svg">
<g clip-path="url(#clip0_21_1660)">
<path d="M0 33.6558C0.28586 33.1241 0.479076 32.5475 0.571371 31.9509C1.26523 29.9418 2.56665 28.1981 4.29541 26.9614C6.02417 25.7247 8.0947 25.0561 10.2203 25.0483C17.086 25.0483 23.9517 25.1497 30.8174 25.0483C32.1977 24.9917 33.5755 25.2099 34.8707 25.6905C36.1659 26.171 37.3526 26.9042 38.3619 27.8475C39.3712 28.7908 40.1829 29.9253 40.7499 31.185C41.3168 32.4448 41.6277 33.8047 41.6644 35.1856C41.7412 36.8133 41.7258 38.444 41.6183 40.07C41.5789 40.5312 41.3675 40.9607 41.026 41.2731C40.6845 41.5856 40.238 41.7581 39.7751 41.7565C39.3227 41.8278 38.8596 41.7424 38.4623 41.5145C38.0651 41.2865 37.7577 40.9297 37.591 40.5031C37.4878 40.1599 37.4472 39.8009 37.4712 39.4433C37.5453 37.752 37.4898 36.0575 37.3053 34.3747C37.0617 33.0471 36.3886 31.8364 35.3894 30.9288C34.3903 30.0213 33.1207 29.4673 31.7759 29.3521C29.0111 29.2323 26.2464 29.2876 23.4817 29.2876C19.3162 29.2876 15.1875 29.3705 10.9852 29.2876C10.0827 29.2493 9.1822 29.3997 8.34112 29.729C7.50004 30.0584 6.73688 30.5595 6.10035 31.2003C5.46382 31.8412 4.96792 32.6077 4.64429 33.451C4.32067 34.2943 4.17643 35.1958 4.2208 36.098C4.28531 37.1025 4.2208 38.1162 4.2208 39.1208C4.2208 40.6137 3.81531 41.3878 2.90295 41.7012C1.99059 42.0145 0.912348 41.7012 0.0184214 40.5676L0 33.6558Z" fill="white"/>
<path d="M97.051 100.166C96.5994 99.8872 96.2377 99.4843 96.0089 99.0055C95.7802 98.5267 95.694 97.9922 95.7607 97.4657C95.8298 96.1642 95.8298 94.8598 95.7607 93.5583C95.6716 91.9714 94.9801 90.4783 93.8274 89.3839C92.6748 88.2895 91.148 87.6763 89.5586 87.6694C82.5915 87.6141 75.6274 87.6141 68.6665 87.6694C67.0206 87.7144 65.4557 88.3932 64.2983 89.5643C63.1409 90.7354 62.4806 92.3082 62.4551 93.9545C62.4551 95.1618 62.3998 96.3783 62.4551 97.5763C62.5412 98.0999 62.4525 98.6373 62.2026 99.1053C61.9528 99.5734 61.5556 99.9462 61.0727 100.166H59.5152C59.0654 99.8859 58.7056 99.4826 58.4785 99.0039C58.2514 98.5251 58.1666 97.9912 58.2343 97.4657C58.308 95.3277 58.0684 93.162 58.6397 91.0147C59.2118 88.8239 60.5009 86.8877 62.3014 85.5148C64.1019 84.1418 66.3102 83.4112 68.5743 83.4394C75.9469 83.3841 83.2734 83.2274 90.6276 83.5223C95.558 83.7159 99.8433 88.2869 99.9263 93.2357C99.9263 94.6734 99.8802 96.111 99.9263 97.5395C100.005 98.0635 99.9126 98.5992 99.6617 99.066C99.4109 99.5329 99.0154 99.9059 98.5347 100.129L97.051 100.166Z" fill="white"/>
<path d="M22.4588 -0.0185547C24.1821 0.360765 25.8098 1.08834 27.2417 2.1195C30.7253 5.02246 32.0063 8.72718 30.928 13.0862C29.8498 17.4453 26.8362 20.0441 22.3482 20.7353C19.6973 21.1479 16.9898 20.5131 14.7986 18.9651C12.6074 17.4172 11.1043 15.0775 10.6073 12.4411C9.68575 6.42325 13.1509 1.38224 18.9936 0.202623C19.0674 0.202623 19.1227 0.0920342 19.1872 0.027524L22.4588 -0.0185547ZM27.0666 10.386C27.0287 8.74996 26.3588 7.19213 25.1973 6.03925C24.0359 4.88638 22.4731 4.22802 20.8368 4.20225C19.1818 4.24089 17.6083 4.92806 16.4551 6.11572C15.3019 7.30339 14.6614 8.89651 14.6715 10.5519C14.729 12.1874 15.4212 13.7363 16.6014 14.87C17.7816 16.0038 19.357 16.6333 20.9935 16.6251C22.6035 16.5546 24.1257 15.8711 25.248 14.7145C26.3703 13.5579 27.0078 12.0159 27.0298 10.4044L27.0666 10.386Z" fill="white"/>
<path d="M87.7154 38.3097L91.6598 34.2179C91.9275 33.9278 92.2755 33.7237 92.6595 33.6318C93.0435 33.5399 93.4461 33.5643 93.8162 33.7019C94.1921 33.8217 94.5248 34.0486 94.7736 34.3547C95.0224 34.6608 95.1765 35.0328 95.217 35.4252C95.2559 35.7985 95.2003 36.1756 95.0554 36.5218C94.9105 36.868 94.6808 37.1723 94.3876 37.4066L88.5909 43.2125C88.0447 43.7152 87.5841 44.3035 87.227 44.9543C87.0356 45.2466 86.7817 45.4928 86.4836 45.675C86.1855 45.8572 85.8506 45.971 85.5032 46.008C85.1558 46.0451 84.8044 46.0045 84.4746 45.8892C84.1448 45.7739 83.8447 45.5868 83.596 45.3413C80.8681 42.6442 78.1556 39.9256 75.4585 37.1854C75.2538 36.9972 75.0903 36.7686 74.9785 36.514C74.8667 36.2594 74.809 35.9844 74.809 35.7063C74.809 35.4282 74.8667 35.1532 74.9785 34.8986C75.0903 34.644 75.2538 34.4153 75.4585 34.2272C75.6481 34.0249 75.8772 33.8637 76.1316 33.7534C76.386 33.6432 76.6603 33.5863 76.9376 33.5863C77.2149 33.5863 77.4892 33.6432 77.7436 33.7534C77.998 33.8637 78.2271 34.0249 78.4167 34.2272C79.7991 35.5542 81.1815 36.9366 82.4993 38.3005C82.7205 38.5217 82.914 38.7705 83.1628 39.0654C83.337 38.7715 83.4022 38.4257 83.3472 38.0886C83.3472 33.2319 83.2642 28.3752 83.3472 23.5277C83.3728 22.6208 83.2125 21.7183 82.8761 20.8757C82.5397 20.0331 82.0343 19.2684 81.391 18.6286C80.7478 17.9888 79.9803 17.4875 79.1359 17.1556C78.2916 16.8237 77.3882 16.6683 76.4814 16.6988C65.8096 16.8002 55.1378 16.6988 44.466 16.6988C42.761 16.6988 42.1067 16.321 41.7657 15.1874C41.6528 14.8812 41.6166 14.552 41.6602 14.2285C41.7038 13.905 41.8259 13.5971 42.0159 13.3317C42.2059 13.0663 42.4579 12.8514 42.7501 12.7058C43.0422 12.5602 43.3655 12.4883 43.6918 12.4964C55.1101 12.4964 66.5284 12.4319 77.9467 12.4964C82.9601 12.4964 87.4482 17.2333 87.5035 22.2836C87.5588 27.3338 87.5035 32.1905 87.5035 37.1393C87.4224 37.5422 87.4982 37.9609 87.7154 38.3097V38.3097Z" fill="white"/>
<path d="M12.4965 61.7269C10.8654 63.3949 9.45534 64.8695 7.99004 66.2887C7.72788 66.5803 7.38872 66.792 7.01159 66.8993C6.63445 67.0067 6.23466 67.0055 5.85821 66.8957C5.48176 66.786 5.14395 66.5722 4.88362 66.2789C4.6233 65.9857 4.45105 65.6249 4.38668 65.2381C4.32957 64.8491 4.37717 64.452 4.52458 64.0875C4.67198 63.723 4.91386 63.4044 5.22532 63.1645L11.9159 56.4555C12.2254 56.1703 12.4786 55.8296 12.6624 55.451C12.8056 55.1311 13.0255 54.8516 13.3026 54.6371C13.5797 54.4227 13.9055 54.28 14.251 54.2216C14.5965 54.1633 14.9511 54.1911 15.2833 54.3027C15.6154 54.4142 15.9149 54.6061 16.1552 54.8612C18.8185 57.7273 21.6846 60.3906 24.3848 63.2106C24.6202 63.4321 24.8219 63.6867 24.9839 63.9663C25.1397 64.2324 25.2263 64.5334 25.2356 64.8417C25.245 65.1499 25.1769 65.4556 25.0375 65.7307C24.8981 66.0058 24.6919 66.2415 24.4378 66.4163C24.1837 66.5911 23.8898 66.6993 23.5831 66.731C23.05 66.8622 22.4913 66.8457 21.9668 66.6834C21.4424 66.521 20.9721 66.2189 20.6064 65.8095C19.436 64.5008 18.1642 63.2936 16.9201 62.0494C16.5607 62.2522 16.6989 62.5471 16.6989 62.7775C16.6989 67.4683 16.6989 72.1683 16.6989 76.8591C16.6536 77.74 16.7941 78.6205 17.1115 79.4435C17.4288 80.2664 17.9158 81.0134 18.5408 81.6357C19.1658 82.2581 19.9147 82.742 20.739 83.0558C21.5633 83.3697 22.4444 83.5066 23.325 83.4576C31.2076 83.4576 39.0839 83.4576 46.9542 83.4576C47.3761 83.4467 47.7982 83.4682 48.2167 83.5221C48.4856 83.54 48.7477 83.6143 48.9859 83.7403C49.2241 83.8663 49.4331 84.041 49.5992 84.2532C49.7653 84.4654 49.8848 84.7102 49.9499 84.9717C50.0149 85.2332 50.0242 85.5055 49.977 85.7708C49.9838 86.0262 49.9375 86.2804 49.8408 86.517C49.7442 86.7536 49.5994 86.9675 49.4157 87.1452C49.232 87.3229 49.0133 87.4604 48.7736 87.549C48.5339 87.6376 48.2783 87.6754 48.0232 87.66C39.3696 87.66 30.716 87.7337 22.0625 87.66C17.0399 87.6047 12.5518 82.9047 12.5057 77.8637C12.4597 72.8226 12.5057 68.012 12.5057 63.1185L12.4965 61.7269Z" fill="white"/>
<path d="M79.1079 79.3291C77.7081 79.3343 76.3217 79.0551 75.033 78.5086C73.7442 77.962 72.5798 77.1595 71.6104 76.1496C70.641 75.1397 69.8868 73.9434 69.3934 72.6334C68.9 71.3233 68.6778 69.9268 68.7402 68.5283C68.7911 65.7996 69.9197 63.2019 71.8795 61.3025C73.8393 59.4031 76.4711 58.3564 79.2001 58.391C80.5836 58.3882 81.9537 58.6619 83.2299 59.196C84.5062 59.73 85.6629 60.5137 86.6321 61.501C87.6014 62.4882 88.3636 63.6592 88.874 64.945C89.3845 66.2309 89.6329 67.6059 89.6046 68.9891C89.5962 70.3578 89.3178 71.7113 88.7854 72.9723C88.253 74.2332 87.477 75.3767 86.5019 76.3372C85.5268 77.2977 84.3718 78.0564 83.103 78.5699C81.8342 79.0833 80.4766 79.3413 79.1079 79.3291V79.3291ZM72.9702 68.7495C72.9752 70.3865 73.6078 71.9593 74.7376 73.144C75.8674 74.3286 77.4084 75.035 79.0434 75.1175C80.6462 75.0906 82.1816 74.4679 83.3503 73.3707C84.519 72.2735 85.2374 70.7805 85.3654 69.1826C85.3991 67.5131 84.7842 65.8955 83.6498 64.6701C82.5155 63.4447 80.9502 62.7069 79.283 62.6118C77.649 62.6449 76.0885 63.2969 74.9167 64.4362C73.745 65.5755 73.0493 67.1171 72.9702 68.7495Z" fill="white"/>
</g>
<defs>
<clipPath id="clip0_21_1660">
<rect width="100" height="100.166" fill="white"/>
</clipPath>
</defs>
</svg>
