<svg width="100" height="100" viewBox="0 0 100 100" fill="none" xmlns="http://www.w3.org/2000/svg">
<g clip-path="url(#clip0_21_1655)">
<path d="M-5.37527e-06 42.5042C0.304086 41.3844 0.543673 40.2462 0.921484 39.1449C2.05094 35.8346 4.18225 32.9615 7.01741 30.9273C9.85256 28.8931 13.2498 27.7995 16.7342 27.7994H44.5171V9.39298C44.5171 7.69022 45.1069 7.00542 46.7748 6.8481C51.5984 6.44961 56.3636 5.51858 60.9841 4.07186C64.3752 2.97988 67.6834 1.61952 71.0008 0.314693C71.3945 0.129628 71.8239 0.0336914 72.2586 0.0336914C72.6933 0.0336914 73.1227 0.129628 73.5164 0.314693C80.373 3.46552 87.654 5.58583 95.1253 6.60748C95.9639 6.72779 96.8024 6.78334 97.641 6.86662C99.3734 7.0332 99.9816 7.69947 99.9816 9.4485V24.7455C99.9816 36.526 95.5584 46.3817 87.0807 54.4142C86.8281 54.6324 86.6292 54.9063 86.4997 55.2146C86.3702 55.5229 86.3136 55.8571 86.3343 56.1911C86.3343 61.5492 86.3343 66.9073 86.3343 72.2747C86.3173 76.7174 84.5492 80.9725 81.4167 84.1096C78.2843 87.2467 74.0424 89.0105 69.6185 89.0154C65.5824 89.0154 61.5463 89.0154 57.5101 89.0154C57.0141 89.0468 56.5432 89.2457 56.174 89.5799C53.0409 92.6708 49.9447 95.7987 46.8393 98.9173C46.6274 99.1302 46.4246 99.343 46.2035 99.5281C45.9195 99.7774 45.5679 99.9361 45.1937 99.9839C44.8195 100.032 44.4396 99.9664 44.1025 99.7965C43.7545 99.649 43.46 99.3976 43.2589 99.0765C43.0578 98.7554 42.9599 98.38 42.9783 98.0012V88.9877H41.7619C33.5514 88.9877 25.3502 88.8859 17.1489 88.9877C13.0655 89.0547 9.09552 87.637 5.97106 84.9958C2.84659 82.3546 0.778275 78.6681 0.147436 74.616C0.105671 74.4969 0.0466751 74.3847 -0.0276489 74.2829L-5.37527e-06 42.5042ZM46.8761 93.189C47.254 92.8374 47.4843 92.6338 47.7055 92.4117C49.8525 90.2647 51.9996 88.1178 54.1559 85.9338C54.4303 85.6335 54.7655 85.3955 55.139 85.2359C55.5125 85.0763 55.9156 84.9987 56.3214 85.0084C60.7138 85.0454 65.1093 85.0454 69.5079 85.0084C72.8588 85.0101 76.0789 83.7024 78.4867 81.3621C80.8945 79.0218 82.3011 75.8324 82.4088 72.469C82.5378 67.7587 82.4088 63.0483 82.4088 58.3472C82.4088 58.3472 82.3535 58.2547 82.2798 58.1529C82.0125 58.3103 81.7545 58.4861 81.4689 58.6249C78.7505 59.9297 76.0505 61.2716 73.2953 62.4931C72.6401 62.7479 71.9139 62.7479 71.2588 62.4931C68.78 61.4474 66.3564 60.2721 63.8869 59.1339C63.6381 59.0228 63.3985 58.884 63.1312 58.7359C62.8179 61.2438 61.2882 62.891 59.2333 63.0391C58.1867 63.1513 57.1352 62.8769 56.2754 62.2672C55.4155 61.6575 54.8062 60.7542 54.5614 59.7261C54.0361 57.5977 55.1327 55.6636 57.5931 54.4975C50.9977 48.5163 46.5805 40.4943 45.0424 31.7046C44.9012 31.6974 44.7597 31.6974 44.6185 31.7046C35.2746 31.7046 25.9307 31.6306 16.596 31.7046C13.1889 31.7558 9.94036 33.1587 7.55956 35.6068C5.17876 38.055 3.85909 41.3496 3.88868 44.7715C3.88868 53.822 3.84261 62.8725 3.88868 71.9323C3.93264 73.561 4.24399 75.1713 4.81017 76.6982C6.70844 81.9452 11.5186 85.0269 17.4714 85.0269H44.4158C46.2588 85.0269 46.8577 85.6654 46.8577 87.5162L46.8761 93.189ZM48.4335 10.8274C48.4335 15.2231 48.3782 19.5632 48.4335 23.9034C48.4249 26.3182 48.616 28.7294 49.0048 31.1124C51.502 44.3365 59.0675 53.4426 71.4891 58.4675C71.9872 58.6432 72.53 58.6432 73.028 58.4675C77.2595 56.9319 81.1394 54.5556 84.4361 51.4807C90.6961 45.891 94.6882 38.1827 95.6506 29.8261C96.0837 26.2077 95.9823 22.5246 96.056 18.8692C96.1113 16.1947 96.056 13.5203 96.056 10.8366C95.8809 10.7811 95.7704 10.7255 95.6506 10.6978L95.07 10.5867C87.5066 9.63753 80.1233 7.5765 73.157 4.46978C72.8873 4.33735 72.5911 4.26848 72.2908 4.26848C71.9906 4.26848 71.6943 4.33735 71.4246 4.46978C66.509 6.68246 61.3673 8.34884 56.091 9.43924C53.5938 9.9112 51.0505 10.3184 48.4335 10.7904V10.8274Z" fill="white"/>
<path d="M31.8374 58.7546C31.8498 59.3252 31.7478 59.8926 31.5374 60.4229C31.3271 60.9532 31.0127 61.4356 30.6129 61.8413C30.2131 62.2471 29.7362 62.568 29.2104 62.7849C28.6847 63.0019 28.1209 63.1104 27.5525 63.104C26.9838 63.1128 26.4191 63.0067 25.8919 62.7922C25.3648 62.5776 24.8859 62.2589 24.4837 61.855C24.0815 61.4511 23.7641 60.9701 23.5505 60.4407C23.3368 59.9113 23.2312 59.3443 23.2399 58.7731C23.2363 58.2109 23.3431 57.6534 23.5543 57.1327C23.7654 56.612 24.0768 56.1382 24.4705 55.7385C24.8643 55.3388 25.3327 55.021 25.8489 54.8033C26.3651 54.5856 26.9189 54.4724 27.4788 54.47C28.0471 54.4564 28.6124 54.5572 29.1413 54.7666C29.6702 54.9759 30.1519 55.2895 30.5582 55.6889C30.9644 56.0882 31.2869 56.5652 31.5067 57.0918C31.7264 57.6183 31.8388 58.1837 31.8374 58.7546V58.7546Z" fill="white"/>
<path d="M43.1718 63.1038C42.6034 63.1126 42.0392 63.0065 41.5125 62.7919C40.9858 62.5772 40.5076 62.2584 40.1061 61.8543C39.7046 61.4503 39.3881 60.9692 39.1755 60.4399C38.9629 59.9105 38.8584 59.3436 38.8684 58.7729C38.8633 58.2017 38.9725 57.6352 39.1896 57.1072C39.4066 56.5792 39.727 56.1003 40.1318 55.699C40.5366 55.2977 41.0175 54.982 41.546 54.7709C42.0745 54.5597 42.6399 54.4573 43.2086 54.4698C43.7684 54.4685 44.3228 54.5786 44.84 54.7937C45.3571 55.0089 45.8268 55.3247 46.2217 55.7231C46.6167 56.1214 46.9292 56.5944 47.1411 57.1147C47.3531 57.635 47.4603 58.1922 47.4567 58.7544C47.4691 59.325 47.367 59.8924 47.1567 60.4227C46.9463 60.953 46.6319 61.4354 46.2321 61.8411C45.8324 62.2469 45.3554 62.5678 44.8297 62.7847C44.3039 63.0017 43.7401 63.1102 43.1718 63.1038Z" fill="white"/>
<path d="M63.85 23.7366C63.85 22.8945 63.85 22.0154 63.85 21.1455C63.9746 18.9875 64.9164 16.959 66.4824 15.4758C68.0483 13.9927 70.1198 13.1672 72.2724 13.1685C74.4238 13.1723 76.4921 14.0028 78.0531 15.4896C79.6142 16.9763 80.5494 19.0066 80.6671 21.164C80.6671 22.0061 80.6671 22.8575 80.6671 23.7552L81.5057 23.8847C82.2816 24.0108 82.9898 24.4037 83.5092 24.9962C84.0286 25.5887 84.3269 26.344 84.3531 27.1329C84.3531 31.871 84.3531 36.6091 84.3531 41.3472C84.3582 42.2083 84.0274 43.0373 83.4315 43.6566C82.8356 44.2758 82.0219 44.636 81.1647 44.6602C75.2119 44.7095 69.2591 44.7095 63.3063 44.6602C62.45 44.6312 61.6391 44.266 61.0481 43.643C60.4571 43.02 60.133 42.1891 60.1456 41.3287C60.1456 36.6153 60.1456 31.908 60.1456 27.2069C60.1732 25.3376 61.3619 24.2086 63.85 23.7366ZM76.7508 23.8014C76.7508 22.9778 76.7508 22.2282 76.7508 21.4879C76.7352 20.6274 76.4637 19.7913 75.971 19.0871C75.4784 18.3828 74.7872 17.8428 73.9863 17.5364C73.2001 17.169 72.3215 17.0493 71.4662 17.193C70.6109 17.3367 69.8189 17.7371 69.1946 18.3415C67.5175 19.8314 67.6281 21.784 67.7755 23.8014H76.7508ZM74.401 38.8486V37.479C74.2617 36.2583 74.4998 35.0241 75.0829 33.9439C75.4163 33.3226 75.5066 32.5986 75.3361 31.9139C75.1657 31.2291 74.7468 30.633 74.1614 30.2423C73.6179 29.8243 72.9524 29.5978 72.2678 29.5978C71.5832 29.5978 70.9176 29.8243 70.3741 30.2423C69.7894 30.6342 69.3753 31.2351 69.2161 31.9228C69.0569 32.6104 69.1645 33.3331 69.5171 33.9439C70.0413 34.9071 70.2599 36.0082 70.1437 37.0996V38.7931L74.401 38.8486Z" fill="white"/>
</g>
<defs>
<clipPath id="clip0_21_1655">
<rect width="100" height="100" fill="white"/>
</clipPath>
</defs>
</svg>
