<svg width="100" height="101" viewBox="0 0 100 101" fill="none" xmlns="http://www.w3.org/2000/svg">
<g clip-path="url(#clip0_21_1672)">
<path d="M93.0435 30.4298V87.5198C93.0435 89.4198 92.5764 89.8798 90.6469 89.8798C83.8631 89.8798 77.0895 89.8798 70.3361 89.8798C69.7039 89.8991 69.0848 90.0634 68.5285 90.3598C63.4508 93.2198 58.3731 96.0898 53.2954 99.0298C52.3392 99.658 51.2155 99.9932 50.066 99.9932C48.9165 99.9932 47.7928 99.658 46.8366 99.0298C41.7589 96.0298 36.6812 93.2098 31.6035 90.3598C31.0168 90.0455 30.3621 89.874 29.6943 89.8598C22.8801 89.8598 16.0658 89.8598 9.25154 89.8598C7.54544 89.8598 7.01736 89.3398 7.01736 87.6498V30.4298C3.67624 29.5598 1.3202 27.6098 0.467145 24.3398C0.0507746 22.7298 0.294497 20.9698 0.111701 19.3398C-0.0619568 17.4407 0.508472 15.5481 1.7061 14.0498C4.69178 9.85982 7.51498 5.56982 10.3686 1.29982C10.607 0.891036 10.9569 0.55627 11.3788 0.333541C11.8006 0.110811 12.2775 0.0090666 12.7551 0.0398393C37.6155 0.0398393 62.4725 0.0398393 87.3261 0.0398393C87.8205 0.00221335 88.3155 0.104605 88.7528 0.334944C89.19 0.565284 89.5512 0.91395 89.7938 1.33983C92.9623 6.08983 96.2019 10.7898 99.3602 15.5398C99.7401 16.1633 99.95 16.8729 99.9695 17.5998C100.131 19.5346 100.103 21.4801 99.8883 23.4098C99.2079 27.1198 96.8112 29.4098 93.0435 30.4298ZM10.4194 86.4298H24.5252C24.1698 86.2098 23.9971 86.0998 23.8143 85.9998C22.8129 85.5149 21.9812 84.7468 21.4258 83.7937C20.8704 82.8405 20.6165 81.7459 20.6967 80.6498C20.7576 71.9698 20.6967 63.2798 20.6967 54.5898C20.6568 53.6491 20.8848 52.716 21.3549 51.8961C21.8251 51.0762 22.5187 50.4021 23.3574 49.9498C24.3729 49.3598 25.3377 48.8198 26.3329 48.2498C33.2182 44.3432 40.1002 40.4265 46.9788 36.4998C47.7799 35.9528 48.7218 35.64 49.6957 35.5975C50.6696 35.5551 51.6359 35.7847 52.483 36.2598C60.6073 40.8332 68.7011 45.4332 76.7645 50.0598C77.5548 50.4942 78.2063 51.1371 78.6459 51.9162C79.0854 52.6952 79.2955 53.5796 79.2526 54.4698C79.2526 63.3698 79.2526 72.2698 79.2526 81.1698C79.2825 82.0771 79.0611 82.9753 78.6121 83.7681C78.163 84.5608 77.5032 85.2182 76.7036 85.6698L75.4849 86.4198H89.5501V30.7798L84.1881 27.4398C83.3886 28.4146 82.3764 29.1995 81.2265 29.7362C80.0767 30.2729 78.8189 30.5476 77.5464 30.5398C76.2135 30.5331 74.8993 30.2301 73.7018 29.6535C72.5044 29.077 71.4546 28.2416 70.6306 27.2098C69.815 28.2407 68.7725 29.076 67.5817 29.6528C66.3908 30.2296 65.0826 30.5329 63.7554 30.5398C62.423 30.5326 61.1095 30.2283 59.9135 29.6499C58.7176 29.0714 57.6701 28.2338 56.8498 27.1998C56.0388 28.2364 54.9975 29.0765 53.8058 29.6554C52.614 30.2344 51.3035 30.5369 49.9746 30.5398C48.6436 30.5325 47.3316 30.2282 46.1373 29.6497C44.9429 29.0712 43.8973 28.2336 43.0791 27.1998C42.2639 28.2369 41.219 29.0769 40.0239 29.6557C38.8289 30.2346 37.5154 30.537 36.1836 30.5398C34.8543 30.531 33.5443 30.226 32.3519 29.6475C31.1594 29.0691 30.1154 28.2322 29.2983 27.1998C28.4826 28.2388 27.4361 29.08 26.239 29.6589C25.042 30.2379 23.7262 30.5393 22.3926 30.5398C21.1258 30.5412 19.8743 30.2667 18.7278 29.7359C17.5813 29.2052 16.5683 28.4313 15.7611 27.4698L10.3991 30.7598L10.4194 86.4298ZM24.1596 67.7698C24.1596 72.0498 24.1596 76.3198 24.1596 80.5898C24.1155 81.0807 24.2227 81.5733 24.4673 82.0032C24.7119 82.4332 25.0825 82.7805 25.5306 82.9998C33.269 87.3598 40.9905 91.7498 48.695 96.1698C49.0796 96.4235 49.532 96.5589 49.9949 96.5589C50.4578 96.5589 50.9102 96.4235 51.2948 96.1698C59.0332 91.7365 66.7851 87.3265 74.5506 82.9398C74.9656 82.7347 75.3101 82.4139 75.5412 82.0174C75.7724 81.6209 75.8799 81.1661 75.8505 80.7098C75.8505 72.1165 75.8505 63.5332 75.8505 54.9598C75.8858 54.5024 75.7833 54.0449 75.5556 53.6446C75.328 53.2443 74.9855 52.9192 74.5709 52.7098C66.8122 48.3232 59.0603 43.9131 51.3151 39.4798C50.9305 39.2262 50.4781 39.0907 50.0152 39.0907C49.5523 39.0907 49.0999 39.2262 48.7153 39.4798C41.004 43.8931 33.2826 48.2798 25.5509 52.6398C25.1016 52.8566 24.7288 53.2014 24.4807 53.6293C24.2326 54.0572 24.1208 54.5486 24.1596 55.0398C24.18 59.2898 24.1596 63.5298 24.1596 67.7698ZM5.08784 15.1898H94.902C92.4038 11.4998 89.9665 7.92982 87.5901 4.32982C87.4141 4.01716 87.1494 3.76177 86.8284 3.59483C86.5074 3.4279 86.1439 3.35665 85.7825 3.38981C61.9241 3.38981 38.0725 3.38981 14.2277 3.38981C14.0155 3.35959 13.8 3.35959 13.5879 3.38981C13.2906 3.43757 13.0166 3.57776 12.8059 3.78984C10.2468 7.55984 7.70793 11.3098 5.08784 15.1898ZM3.50359 18.7098C3.50359 19.9298 3.50359 21.0298 3.50359 22.1198C3.52102 23.3537 3.9913 24.5397 4.82756 25.4588C5.66382 26.3778 6.80959 26.9678 8.05321 27.1198C9.2005 27.2845 10.3699 27.0419 11.3522 26.4355C12.3345 25.8291 13.0658 24.8984 13.4153 23.8098C13.7387 22.1375 13.9221 20.4418 13.9636 18.7398L3.50359 18.7098ZM17.2844 18.7098C17.2844 19.9598 17.2337 21.0898 17.2844 22.2198C17.3313 23.4483 17.8263 24.619 18.6788 25.5172C19.5312 26.4153 20.6839 26.9808 21.9254 27.1098C23.0759 27.2422 24.2371 26.9736 25.2073 26.3507C26.1776 25.7277 26.8956 24.7898 27.2367 23.6998C27.5292 22.0479 27.6921 20.3763 27.7242 18.6998L17.2844 18.7098ZM41.2714 18.7098H31.1161C31.1161 19.9398 31.0551 21.1098 31.1161 22.2598C31.1846 23.5233 31.7259 24.717 32.6354 25.6107C33.5449 26.5044 34.7582 27.0349 36.0414 27.0998C37.2873 27.1515 38.509 26.75 39.4735 25.9717C40.438 25.1934 41.078 24.0929 41.2714 22.8798C41.394 21.5031 41.411 20.1191 41.3222 18.7398L41.2714 18.7098ZM44.8461 18.7098C44.8461 19.9898 44.7751 21.1498 44.8461 22.3098C44.9118 23.5369 45.4243 24.6995 46.2897 25.5848C47.1551 26.47 48.3155 27.0185 49.5582 27.1298C50.7115 27.2391 51.8673 26.9494 52.8273 26.3107C53.7872 25.6721 54.4913 24.7242 54.8187 23.6298C55.0983 22.0039 55.2477 20.3588 55.2656 18.7098H44.8461ZM68.8128 18.7098H58.6575C58.6575 19.9698 58.5762 21.1698 58.6575 22.3598C58.7476 23.6046 59.2973 24.7739 60.2027 25.6471C61.1082 26.5203 62.3069 27.0371 63.5727 27.0998C64.8023 27.1379 66.0042 26.7351 66.9549 25.9663C67.9056 25.1975 68.5406 24.1149 68.7417 22.9198C68.8725 21.5302 68.8963 20.1329 68.8128 18.7398V18.7098ZM72.418 18.6498C72.3517 19.939 72.3517 21.2306 72.418 22.5198C72.5259 23.7176 73.0635 24.8384 73.9344 25.6813C74.8053 26.5242 75.9526 27.0342 77.1707 27.1198C78.2658 27.225 79.3648 26.9607 80.2873 26.3702C81.2099 25.7797 81.9014 24.898 82.2484 23.8698C82.5906 22.1587 82.7909 20.4229 82.8476 18.6798L72.418 18.6498ZM86.1785 18.6498C86.1785 19.9498 86.0973 21.1598 86.1785 22.3398C86.2589 23.5901 86.8029 24.7678 87.7072 25.649C88.6115 26.5303 89.8131 27.0537 91.0836 27.1198C92.328 27.1718 93.5484 26.7717 94.5127 25.9955C95.477 25.2192 96.1179 24.1211 96.3136 22.9098C96.4206 21.5051 96.4206 20.0945 96.3136 18.6898L86.1785 18.6498Z" fill="white"/>
<path d="M31.9183 67.9199C31.9183 71.9199 31.9183 75.8999 31.9183 79.8599C31.9404 80.1929 31.9404 80.527 31.9183 80.8599C31.8632 81.2654 31.657 81.6362 31.3399 81.9004C31.0228 82.1647 30.6173 82.3035 30.2021 82.29C29.7851 82.3 29.3794 82.1555 29.0654 81.8851C28.7514 81.6148 28.5518 81.2382 28.5061 80.8299C28.4908 80.6202 28.4908 80.4097 28.5061 80.1999C28.5061 73.0999 28.5061 66 28.5061 58.9C28.5061 57.47 29.4099 56.53 30.5372 56.9C31.1712 57.1748 31.6732 57.6799 31.9386 58.31C34.122 63.52 36.2344 68.76 38.3568 73.99C38.4424 74.2236 38.5983 74.4259 38.8037 74.57V53.6999C38.8037 52.2599 39.8192 51.38 41.0582 51.8C41.439 51.9197 41.7661 52.1652 41.9844 52.495C42.2027 52.8247 42.2988 53.2185 42.2565 53.6099C42.2565 56.7899 42.2565 59.97 42.2565 63.15V83.5C42.2565 84.74 41.8198 85.43 40.9261 85.62C40.0325 85.81 39.2404 85.36 38.7529 84.18L32.1316 67.91L31.9183 67.9199Z" fill="white"/>
<path d="M50.0355 48.6498V66.9898C52.0666 66.9898 53.986 66.9898 55.946 66.9898C56.1697 66.9721 56.3947 66.9991 56.6075 67.0692C56.8203 67.1393 57.0166 67.251 57.1845 67.3976C57.3523 67.5443 57.4884 67.7228 57.5845 67.9225C57.6805 68.1222 57.7346 68.339 57.7435 68.5598C57.7658 68.7978 57.7357 69.0378 57.6552 69.2633C57.5746 69.4889 57.4455 69.6946 57.2768 69.8665C57.108 70.0384 56.9036 70.1723 56.6774 70.2592C56.4512 70.346 56.2086 70.3838 55.9663 70.3698C55.0015 70.3698 54.0266 70.3698 53.0618 70.3698H50.0152V71.5198C50.0152 76.9998 50.0152 82.4698 50.0152 87.9398C50.0152 88.7598 49.7817 89.5198 48.9997 89.6898C48.6858 89.7573 48.3613 89.762 48.0456 89.7036C47.7298 89.6452 47.4292 89.5249 47.1616 89.3498C46.7739 88.8648 46.5822 88.2557 46.6233 87.6398C46.6233 75.3198 46.6233 62.9864 46.6233 50.6398C46.6233 49.6398 46.5624 48.6398 46.6233 47.6398C46.6569 47.1269 46.8726 46.6419 47.2327 46.2698C47.8913 45.7538 48.6422 45.3637 49.4465 45.1198C50.0259 44.9906 50.6332 45.0761 51.1526 45.3598C53.2954 46.4998 55.3976 47.7198 57.4997 48.9298C58.627 49.5798 58.952 50.4798 58.4543 51.3898C58.328 51.6149 58.1533 51.8103 57.9425 51.9622C57.7317 52.1141 57.4897 52.2189 57.2336 52.2694C56.9774 52.3198 56.7132 52.3147 56.4592 52.2543C56.2053 52.1939 55.9677 52.0798 55.7632 51.9198C53.8641 50.8498 52.026 49.7898 50.0355 48.6498Z" fill="white"/>
<path d="M67.2185 58.4399V66.9799C67.2185 71.7399 67.2185 76.5032 67.2185 81.2699C67.2454 81.5081 67.2193 81.7492 67.142 81.9765C67.0646 82.2037 66.938 82.4117 66.7707 82.5859C66.6035 82.76 66.3998 82.8962 66.1737 82.985C65.9476 83.0738 65.7046 83.113 65.4616 83.0999C65.2286 83.0993 64.9982 83.0512 64.785 82.9585C64.5718 82.8659 64.3805 82.7307 64.223 82.5616C64.0656 82.3924 63.9454 82.193 63.8702 81.9758C63.795 81.7587 63.7663 81.5285 63.7859 81.2999C63.7859 81.0499 63.7859 80.7999 63.7859 80.5499C63.7859 72.8899 63.7859 65.2299 63.7859 57.5499C63.8357 57.1953 63.7625 56.8346 63.5782 56.5261C63.3939 56.2176 63.1093 55.9793 62.7704 55.8499C62.1849 55.5682 61.6274 55.2334 61.1049 54.8499C60.7318 54.626 60.4637 54.266 60.359 53.8482C60.2544 53.4305 60.3217 52.9889 60.5464 52.6199C60.6455 52.4198 60.7855 52.242 60.9576 52.0976C61.1296 51.9532 61.3301 51.8452 61.5464 51.7805C61.7627 51.7157 61.9902 51.6956 62.2148 51.7213C62.4394 51.747 62.6562 51.818 62.8516 51.9299C65.7764 53.5499 68.6876 55.2165 71.5853 56.9299C71.7825 57.0379 71.9551 57.1848 72.0922 57.3613C72.2294 57.5378 72.3282 57.7402 72.3825 57.956C72.4368 58.1717 72.4454 58.3961 72.4079 58.6153C72.3703 58.8344 72.2873 59.0436 72.1641 59.2299C72.0525 59.422 71.9035 59.5906 71.7255 59.7258C71.5475 59.8611 71.3442 59.9604 71.1271 60.018C70.9101 60.0756 70.6836 60.0904 70.4607 60.0616C70.2378 60.0327 70.023 59.9608 69.8284 59.8499C68.9957 59.4699 68.2035 58.9899 67.2185 58.4399Z" fill="white"/>
</g>
<defs>
<clipPath id="clip0_21_1672">
<rect width="100" height="100.03" fill="white"/>
</clipPath>
</defs>
</svg>
